<svg
   viewBox="0 65 185 185"
   version="1.1"
   xmlns="http://www.w3.org/2000/svg">
  <g>
    <path
       style="fill:#03033f;fill-opacity:1"
       d="m 54.325023,225.8418 c -22.120274,-4.64744 -36.28707,-27.43247 -30.883028,-49.67043 1.100889,-4.53022 0.235286,-5.55833 -10.840663,-12.87579 -9.653693,-6.37783 -10.496239,-7.51301 -9.437922,-12.71596 2.03877,-10.02308 11.520989,-12.16547 17.644334,-3.9865 2.085529,2.78565 2.920863,3.75849 2.064613,2.40449 -7.542442,-11.92702 -8.338434,-16.60892 -3.700741,-21.76714 4.471833,-4.97375 14.399427,-5.18901 16.595787,-0.35984 0.888122,1.95273 3.040291,8.39048 3.790922,11.33973 0.702243,2.75914 0.75614,2.19462 0.122477,-1.28281 -2.410139,-13.22643 0.849159,-19.10965 9.948238,-17.95714 6.079915,0.7701 7.026866,2.59826 6.919443,13.35845 -0.126723,12.69337 3.726311,16.84253 15.676672,16.88149 12.241941,0.0399 20.792576,-4.09524 23.691736,-11.45752 3.27172,-8.30837 8.565339,-18.13101 13.005229,-24.13205 2.62579,-3.54905 2.57932,-3.02497 0.47024,-5.30298 -11.289159,-12.193325 1.3846,-31.064523 16.69753,-24.862616 1.34493,0.544712 1.34493,0.544712 2.35289,-1.207813 4.93137,-8.574057 18.74279,-9.093382 23.12603,-0.869565 0.85614,1.606267 0.85614,1.606267 2.67968,1.606267 9.10844,0 14.6442,7.792444 11.25544,15.843792 -0.388,0.92183 -0.66874,1.705015 -0.62388,1.740415 0.0449,0.0354 0.79356,0.38562 1.66377,0.77829 4.28117,1.93181 9.82358,6.50675 12.98356,10.71719 2.26405,3.01666 2.2389,3.52526 -0.13681,2.76694 -3.00021,-0.95765 -15.18534,0.67544 -20.35483,2.72802 -10.28555,4.08396 -11.15441,22.39999 -2.55194,53.79619 2.21036,8.06707 2.3195,8.67332 2.45307,13.62604 0.41729,15.4719 -11.87299,24.68548 -39.88046,29.89698 -9.19828,1.71157 -9.79485,1.52104 -11.77672,-3.76118 -5.45785,-14.54667 -13.948869,-23.92739 -29.112059,-32.16249 -12.761408,-6.9307 -20.613185,-7.06264 -13.118465,-0.22045 5.359527,4.8929 5.78316,6.45439 5.214914,19.22192 -0.260945,5.86299 -0.174643,6.39111 1.744905,10.67775 0.942194,2.10407 0.813216,2.30277 -2.265324,3.48998 -5.011396,1.9326 -5.78976,2.67214 -8.748013,8.31166 -2.665566,5.08155 -3.224768,5.95739 -3.788916,5.93434 -0.252836,-0.0103 -1.549605,-0.24777 -2.881709,-0.52766 z" />
    <circle
       style="fill:#03033f;fill-opacity:1;stroke-width:0.264583"
       cx="168.52145"
       cy="129.23096"
       r="3.8387754" />
    <circle
       style="fill:#ffffff;fill-opacity:1;stroke-width:0.264583"
       cx="138.65773"
       cy="111.15031"
       r="3.8387754" />
  </g>
</svg>
