<?xml version="1.0" encoding="UTF-8" standalone="no"?>
<svg
   viewBox="0 40 240 240"
   version="1.1"
   id="svg1"
   xml:space="preserve"
   xmlns="http://www.w3.org/2000/svg">
  <defs id="defs1" />
  <g id="layer1">
    <g id="g64" transform="matrix(1.8761668,0,0,1.8761668,-102.77984,-76.999393)">
      <path id="path61" style="fill:#03033f;fill-opacity:1;stroke-width:0.454122" d="m 110.10232,70.360563 c -17.135,0.204081 -34.346638,8.708537 -45.428231,26.29917 -21.817597,34.632687 2.134983,82.124957 42.856811,84.974657 37.3417,2.61316 67.16726,-36.67638 55.08915,-72.56973 -8.5835,-25.508155 -30.48701,-38.966487 -52.51773,-38.704097 z m -0.0284,1.564763 c 21.81708,-0.313487 43.22542,13.443026 51.23047,38.080364 10.19903,31.38977 -11.83879,65.81085 -44.74973,69.89547 -1.52457,0.18919 -7.90142,0.34342 -9.19168,0.22221 -7.04322,-0.66161 -12.473441,-2.11064 -18.150834,-4.84415 C 55.528021,159.06126 47.423937,115.16368 73.168144,88.373934 83.745959,77.366526 96.983653,72.113417 110.0739,71.925326 Z m -2.17661,9.221659 c -1.27729,-0.08155 -3.1143,1.357161 -5.7397,4.262272 -3.503574,3.876843 -3.743965,3.9865 -4.043682,1.845365 -0.736282,-5.259886 -3.113936,-5.242936 -7.669816,0.05478 -5.98158,6.955554 -6.96808,11.060801 -3.742924,15.580438 0.712378,0.99831 0.701434,1.04323 -0.334863,1.34462 -6.352308,1.84746 -13.608869,11.43349 -7.926648,10.4712 5.885109,-0.99665 10.775987,1.02579 10.441739,4.31808 -0.145193,1.43013 -1.382502,3.38268 -4.425569,6.98459 -5.286879,6.25777 -6.907675,9.00007 -7.796424,13.19093 -1.623348,7.65483 1.348336,14.33696 9.496578,21.35476 5.913696,5.09326 8.072728,8.78796 7.731311,13.22969 -0.05576,0.7255 -0.0348,1.04839 0.07596,1.18184 0.239999,0.28919 0.474263,0.21824 0.884184,-0.26665 4.530976,-5.35961 8.611754,-6.61354 17.682134,-5.43326 2.5596,0.33303 3.45706,0.39653 6.06784,0.42943 2.40597,0.0304 3.05968,0.0722 3.04478,0.19327 -0.0104,0.0848 -0.16868,0.94243 -0.3514,1.90583 -0.45097,2.37778 -0.40561,2.43829 1.37046,1.84484 2.40076,-0.80218 7.47085,-4.58646 7.47085,-5.5764 0,-0.0567 0.36472,-0.22159 0.8108,-0.36639 7.27954,-2.36308 17.14468,-14.26811 13.75575,-16.60002 -4.15916,-2.86191 -12.27435,-2.92598 -18.98074,-0.14986 -1.0271,0.42517 -1.02744,0.4253 -2.16059,0.28267 -3.43387,-0.43223 -7.45157,0.16662 -10.13117,1.50999 -1.33138,0.66747 -1.36478,0.87279 -0.29662,1.81642 2.06797,1.82686 1.67329,3.12724 -1.60094,5.27255 -7.68115,5.03275 -16.187266,5.08587 -23.773228,0.14935 -1.67327,-1.08887 -5.462348,-4.36398 -4.663281,-4.03077 0.06608,0.0276 0.579816,0.27232 1.141532,0.54364 10.852088,5.2417 20.883657,0.41065 27.997267,-13.48238 0.8715,-1.70204 1.28713,-2.39844 1.42523,-2.38694 0.10724,0.009 0.62784,0.11706 1.15652,0.2403 6.98576,1.62837 15.30863,-2.56706 19.88715,-10.02471 0.53842,-0.87698 0.53861,-0.87714 1.21129,-0.81494 1.50248,0.13896 3.16429,-0.40777 4.16357,-1.36994 0.88773,-0.85475 0.59177,-1.14602 -0.58859,-0.57981 -1.84281,0.88401 -4.13947,0.93872 -5.14749,0.12247 -0.88934,-0.72014 3.97227,-2.92815 6.60735,-3.00085 1.86237,-0.0514 1.86194,-0.0514 2.46393,-0.46044 2.32766,-1.58157 5.41307,0.002 6.60373,3.38946 0.71857,2.04442 1.24813,3.01934 2.89698,5.33353 2.2536,3.16297 2.64691,4.54427 1.10071,3.86539 -1.8478,-0.8113 -1.54306,0.41589 0.32918,1.3255 1.15316,0.56025 0.17346,1.68264 -1.82883,2.09497 -2.13293,0.43922 -3.19779,1.54696 -3.30367,3.437 -0.0369,0.65887 -0.12152,0.66444 -0.62529,0.0413 -0.36751,-0.45455 -0.36793,-0.45475 -0.36793,-2.21537 0,-2.9286 -0.34343,-3.25876 -4.06177,-3.90726 -2.45258,-0.42774 -3.97933,-1.82416 -4.2354,-3.87366 -0.13432,-1.075 -0.59516,-1.12916 -0.7891,-0.0925 -0.3051,1.63093 0.78516,3.5427 2.52233,4.42298 0.74809,0.37909 0.75655,0.2812 -0.0811,0.93173 -1.9986,1.55204 -4.48764,7.01942 -3.26078,7.16235 0.4482,0.0522 0.67396,-0.27072 1.21026,-1.72961 1.55508,-4.23031 4.00526,-6.206 6.52053,-5.25704 1.05074,0.39642 1.1229,0.61261 1.01803,3.04581 -0.0709,1.64523 0.76708,2.93891 2.44481,3.77496 1.04862,0.52253 1.28185,0.38121 0.98702,-0.59841 -0.67781,-2.2522 0.117,-3.59481 2.40606,-4.0659 2.46472,-0.50725 3.43822,-1.70424 3.27835,-4.03076 -0.11291,-1.64307 -0.7174,-2.86504 -2.97553,-6.01411 -0.95802,-1.33601 -1.3247,-2.02779 -1.93218,-3.64732 -0.8124,-2.16585 -1.34018,-2.98579 -2.5275,-3.92431 -0.46678,-0.36897 -0.7932,-0.79849 -1.35547,-1.78387 -3.27391,-5.73761 -8.12769,-8.37472 -13.64671,-7.41505 -3.33724,0.58029 -3.18284,0.86671 0.51056,0.94671 5.74055,0.12435 8.52749,1.5362 11.33575,5.7428 0.94598,1.41704 0.96402,1.3091 -0.2217,1.3131 -0.75901,0.002 -1.1511,0.0684 -1.67328,0.28319 -0.68197,0.2805 -0.68149,0.28069 -1.27899,-0.63666 -2.95485,-4.53662 -8.96824,-6.07028 -14.16555,-3.61269 -5.09934,2.41127 -9.48343,7.84218 -14.30041,17.71519 -1.21101,2.48212 -1.02867,2.31619 -1.94872,1.77664 -10.15882,-5.95743 -5.21015,-27.66445 8.63255,-37.86487 1.97286,-1.453769 1.82957,-1.415937 3.52433,-0.930176 2.94586,0.844356 4.40581,0.879436 5.86062,0.141077 1.49487,-0.758697 1.1531,-1.36611 -0.50953,-0.905371 -1.55581,0.431138 -2.72971,0.32562 -5.58984,-0.502812 -0.6459,-0.187084 -0.64238,-0.194687 0.5116,-1.05885 2.38105,-1.783059 3.78997,-2.140534 6.14898,-1.560112 1.6478,0.405431 1.97001,0.125969 0.82785,-0.717785 -2.82637,-2.087962 -2.51773,-4.907161 0.7736,-7.066752 0.75997,-0.498653 1.58813,-1.043106 1.8402,-1.209746 0.25208,-0.166645 0.70033,-0.516152 0.99632,-0.776696 1.18327,-1.04156 0.27984,0.795009 -1.16582,2.369881 -1.06146,1.156326 -1.19011,1.393019 -1.19011,2.192114 0,1.121264 0.84898,1.562666 3.65818,1.902726 2.82001,0.341368 2.95465,0.40394 5.17901,2.398303 2.83321,2.540244 4.97048,4.015781 7.22488,4.987293 1.36058,0.586326 1.54092,0.816646 1.53892,1.965256 -0.004,2.43573 -1.33475,3.56212 -4.20852,3.56412 -1.95068,10e-4 -2.44462,0.10506 -4.55373,0.95395 -5.08239,2.04559 -7.89604,1.62664 -9.2661,-1.37976 -0.42774,-0.93863 -0.56129,-1.05124 -0.77515,-0.65164 -0.6207,1.15978 1.59582,4.20284 3.06131,4.20284 0.302,0 0.21956,0.12525 -0.52658,0.80047 -1.31796,1.19268 -2.57286,3.64525 -1.865,3.64525 0.37593,0 0.6659,-0.26849 1.55287,-1.4397 1.36496,-1.80238 2.36308,-2.45752 4.29638,-2.81792 1.35349,-0.25232 2.35779,-0.56334 3.99563,-1.23765 1.91424,-0.78814 1.85293,-0.77501 4.14548,-0.86661 1.81188,-0.0724 2.18922,-0.12217 2.72903,-0.35864 2.83575,-1.24223 3.54248,-6.1548 1.02888,-7.152012 -2.52852,-1.003132 -4.63488,-2.431345 -7.76025,-5.263245 -2.14979,-1.947929 -2.50893,-2.109632 -5.52576,-2.483052 -3.09897,-0.383583 -3.37491,-0.66444 -2.03967,-2.078943 1.42271,-1.507172 1.94833,-2.42165 2.38693,-4.150651 0.57936,-2.283915 0.15334,-3.472505 -0.73845,-2.059823 -0.69366,1.098816 -1.88841,2.165505 -3.97444,3.547071 -3.81568,2.527111 -4.58147,4.310807 -3.23081,7.527189 0.0762,0.181493 0.0167,0.210473 -0.43511,0.211873 -1.69337,0.0046 -4.62378,1.586338 -6.31125,3.407027 -0.45137,0.487009 -1.17243,1.117314 -1.60197,1.400432 -1.0554,0.695615 -1.87197,1.383394 -3.33002,2.803964 -1.22767,1.19609 -1.22782,1.19603 -2.12081,0.34778 -7.07639,-6.721881 -20.034904,-5.241542 -23.230097,2.65358 -0.395363,0.97692 -0.425948,1.00598 -1.152901,1.10278 -5.031199,0.67006 -9.6639,4.24628 -6.229594,4.80901 3.624288,0.59386 4.668279,1.3744 5.056539,3.77961 0.215051,1.3322 0.09275,2.6391 -0.169499,1.81281 -0.681651,-2.14769 -6.008531,-3.72996 -10.380245,-3.08353 -1.645284,0.24329 -1.598679,0.27795 -1.060917,-0.80099 1.622566,-3.25542 5.174076,-6.18216 9.067664,-7.47293 1.651655,-0.54754 1.74201,-1.14209 0.464571,-3.05252 -2.845723,-4.255824 -1.930111,-7.527523 4.030245,-14.398087 3.684059,-4.246653 4.96334,-4.269738 5.512841,-0.09922 0.445561,3.38166 1.814813,3.084538 5.703523,-1.238167 5.0581,-5.622592 5.97479,-5.454163 6.5443,1.20251 0.24033,2.809153 1.3384,3.124717 3.90519,1.122929 5.24419,-4.089831 6.17109,-4.460099 6.77995,-2.709395 2.00393,5.762058 -0.40434,12.782213 -3.78427,11.031368 -0.1938,-0.100392 -0.97429,-0.511085 -1.73426,-0.912606 -8.2424,-4.354779 -18.430492,-3.103049 -22.28442,2.737817 -1.091658,1.654471 -0.756822,1.777141 0.774113,0.283704 4.571986,-4.460009 10.656027,-5.625492 17.703307,-3.391008 1.01981,0.323353 1.93801,0.752939 5.06894,2.372465 3.9744,2.05582 7.15308,-4.021615 5.7118,-10.920263 -0.91696,-4.389029 -2.40474,-4.425656 -7.87291,-0.19482 -3.00921,2.328297 -3.02883,2.33038 -3.19515,0.359668 -0.34408,-4.077055 -1.07266,-6.12219 -2.52026,-6.214608 z m -4.1708,18.121374 c 3.97861,-0.05503 8.15384,1.355831 10.96057,4.254001 0.59568,0.61509 0.59581,0.61494 0.17001,1.06609 -3.25184,3.44544 -6.72688,9.55233 -8.3783,14.72365 -2.93719,9.19762 -0.80184,17.36405 5.35936,20.49694 0.5102,0.25944 0.51005,0.25967 -0.52554,2.33009 -4.82312,9.64274 -9.72217,14.00387 -16.685808,14.85387 -7.79225,0.95114 -14.577059,-2.92957 -16.455843,-9.41286 -1.955638,-6.7485 -0.13399,-12.18328 6.788216,-20.25199 5.115335,-5.96257 6.63644,-9.58299 5.655986,-13.46016 -0.606963,-2.40021 -1.652219,-3.2603 -4.627108,-3.80752 -1.318065,-0.24246 -1.334633,-0.26159 -0.643372,-0.76585 1.208178,-0.88135 2.845163,-1.50202 5.196582,-1.9699 1.516239,-0.30169 2.102715,-0.56861 2.102715,-0.95757 0,-0.2391 0.820746,-1.85116 1.302246,-2.55798 2.019787,-2.96494 5.801667,-4.485776 9.780286,-4.540811 z M 132.6896,118.9607 c 1.92721,-0.12448 3.84422,0.36107 5.73401,1.46864 1.10579,0.64808 3.48351,3.07301 3.48351,3.55276 0,0.0264 -0.5815,0.0534 -1.29191,0.0594 -2.10208,0.0182 -3.22904,0.40067 -5.45341,1.85054 -0.70306,0.45827 -1.59551,0.95097 -1.98283,1.09502 -0.71302,0.26518 -1.12448,0.53054 -1.12448,0.72502 0,0.16602 1.09833,1.29943 1.43816,1.48415 0.68095,0.37016 0.69403,0.29926 -0.33538,1.81281 -3.29903,4.85064 -7.75449,7.90628 -12.7491,8.74468 -1.80679,0.30329 -4.41938,0.22355 -5.8663,-0.17931 -0.65561,-0.18255 -0.73734,0.0975 0.97358,-3.32797 5.51771,-11.04699 11.39249,-16.91234 17.17415,-17.28576 z m 3.69021,31.23013 c 3.29292,0.104 7.28311,1.17969 7.86412,2.11977 0.70874,1.14677 -5.94945,10.20279 -7.3024,9.93221 -2.22545,-0.44509 -4.50699,-3.56319 -5.01881,-6.85901 -0.28272,-1.82053 -0.70445,-1.67452 -0.70745,0.24494 -0.005,3.15499 2.14241,6.574 4.74389,7.55303 0.6876,0.25876 -3.9003,3.04199 -5.69887,3.45715 -0.55368,0.1278 -0.68494,0.2265 -1.28313,0.96687 -1.56323,1.93478 -3.43462,3.4423 -5.51181,4.43901 -1.26492,0.60695 -1.18689,0.75989 -0.77101,-1.50844 0.36183,-1.97355 0.34232,-2.32692 -0.11989,-2.18023 -1.21369,0.38521 -5.85189,0.26766 -9.74462,-0.24701 -8.03844,-1.06279 -12.985791,-0.0155 -16.729733,3.54087 -1.085411,1.03103 -1.003452,1.02297 -1.104842,0.10438 -0.289386,-2.6218 -1.632974,-5.47959 -3.749642,-7.9747 -0.35415,-0.41747 -0.643888,-0.78036 -0.643888,-0.80616 0,-0.0258 0.499765,0.14158 1.111043,0.37208 8.498602,3.2046 15.085802,1.6934 25.633582,-5.88182 8.19168,-5.88311 12.37839,-7.48313 19.03346,-7.27294 z m -14.93604,2.00918 c 0.31522,0.008 0.58699,0.0333 0.7984,0.0801 0.46064,0.10207 0.46055,0.10214 -0.90124,0.96067 -0.74898,0.47219 -2.32282,1.53964 -3.49746,2.37194 -2.46533,1.74682 -2.30372,1.68322 -2.33112,0.91881 -0.0276,-0.77122 -0.37443,-1.53615 -1.00717,-2.2226 -0.27333,-0.29652 -0.47748,-0.55837 -0.46251,-0.5917 v -5.1e-4 c 1.8e-4,-2.1e-4 8.3e-4,-0.001 0.001,-0.002 0.84653,-0.73517 5.19356,-1.56913 7.40007,-1.51516 z m 33.23621,41.22436 c -0.003,0.0269 -0.005,0.0538 -0.009,0.0806 0.46473,0.046 0.92943,0.0915 1.39423,0.13643 0.003,-0.026 0.007,-0.052 0.01,-0.078 -0.37682,-0.079 -0.74936,-0.12264 -1.12241,-0.13539 -0.0909,-0.003 -0.18186,-0.004 -0.27286,-0.004 z" />
      <circle style="fill:#030340;fill-opacity:1;stroke-width:0.264583" id="path63" cx="99.59465" cy="105.57915" r="1.8183674" />
      <circle style="fill:#030340;fill-opacity:1;stroke-width:0.139857" id="path63-6" cx="139.79103" cy="96.263786" r="0.96118075" />
      <circle style="fill:#030340;fill-opacity:1;stroke-width:0.139857" id="path63-6-1" cx="147.16951" cy="128.92198" r="0.96118075" />
      <circle style="fill:#030340;fill-opacity:1;stroke-width:0.139857" id="path63-6-11" cx="138.38884" cy="152.75456" r="0.96118075" />
      <path style="fill:#03033f;fill-opacity:1;stroke-width:0.264583" d="m 149.93622,104.04102 -1.78581,-0.25001 0.10715,-0.60718 2.07154,0.32145" id="path64" />
    </g>
  </g>
</svg>
